<svg xmlns="http://www.w3.org/2000/svg" width="1400" height="900" viewBox="0 0 1400 900" font-family="Georgia, serif"><defs><filter id="glow" x="-50%" y="-50%" width="200%" height="200%"><feGaussianBlur stdDeviation="2.4" result="b"/><feMerge><feMergeNode in="b"/><feMergeNode in="SourceGraphic"/></feMerge></filter><filter id="bloom" x="-200%" y="-200%" width="500%" height="500%"><feGaussianBlur stdDeviation="3" result="b"/><feMerge><feMergeNode in="b"/><feMergeNode in="b"/><feMergeNode in="SourceGraphic"/></feMerge></filter><linearGradient id="sky" x1="0" y1="0" x2="0" y2="1"><stop offset="0" stop-color="#fff3cf"/><stop offset="0.35" stop-color="#bff0e2"/><stop offset="0.7" stop-color="#6cc7b6"/><stop offset="1" stop-color="#2f7f78"/></linearGradient><linearGradient id="meadow" x1="0" y1="0" x2="0" y2="1"><stop offset="0" stop-color="#c8b56a"/><stop offset="1" stop-color="#6f6a38"/></linearGradient><radialGradient id="sun" cx="0.75" cy="0.2" r="0.5"><stop offset="0" stop-color="#ffd66e" stop-opacity="0.55"/><stop offset="1" stop-color="#ffd66e" stop-opacity="0"/></radialGradient><g id="lbase"><defs><clipPath id="lbc"><path d="M150,125 C120,130 100,170 95,210 C85,280 78,350 70,425 L85,418 L96,432 L110,420 L124,434 L138,422 L152,436 L166,422 L180,434 L194,420 L208,430 L222,418 C215,340 205,260 195,205 C190,165 175,132 150,125 Z"/><path d="M150,108 C170,108 186,125 188,150 C189,170 182,188 170,198 L132,198 C120,186 114,168 116,148 C118,128 132,110 150,108 Z"/><path d="M124,128 C104,140 94,166 98,196 L114,172 C114,156 118,140 124,128 Z"/></clipPath><clipPath id="lbl"><rect x="0" y="0" width="140" height="520"/></clipPath></defs><ellipse cx="150" cy="500" rx="78" ry="12" fill="#000" opacity="0.55"/><path d="M92,160 L116,152 L138,280 L114,288 Z" fill="#6a3f25" stroke="#1a1024" stroke-width="3" stroke-linejoin="round" /><line x1="100" y1="160" x2="86" y2="116" stroke="#1a1024" stroke-width="4"/><line x1="100" y1="160" x2="86" y2="116" stroke="#a8703c" stroke-width="2"/><path d="M86,116 l-6,10 l8,2 Z" fill="#6d8f86" stroke="#1a1024" stroke-width="1.5"/><line x1="108" y1="157" x2="99" y2="110" stroke="#1a1024" stroke-width="4"/><line x1="108" y1="157" x2="99" y2="110" stroke="#a8703c" stroke-width="2"/><path d="M99,110 l-6,10 l8,2 Z" fill="#6d8f86" stroke="#1a1024" stroke-width="1.5"/><line x1="116" y1="155" x2="113" y2="114" stroke="#1a1024" stroke-width="4"/><line x1="116" y1="155" x2="113" y2="114" stroke="#a8703c" stroke-width="2"/><path d="M113,114 l-6,10 l8,2 Z" fill="#6d8f86" stroke="#1a1024" stroke-width="1.5"/><path d="M150,125 C120,130 100,170 95,210 C85,280 78,350 70,425 L85,418 L96,432 L110,420 L124,434 L138,422 L152,436 L166,422 L180,434 L194,420 L208,430 L222,418 C215,340 205,260 195,205 C190,165 175,132 150,125 Z" fill="#1f7a68" stroke="#1a1024" stroke-width="3" stroke-linejoin="round" /><path d="M128,330 L150,330 L146,470 L124,470 Z" fill="#46355e" stroke="#1a1024" stroke-width="3" stroke-linejoin="round" /><path d="M152,330 L176,330 L182,470 L160,470 Z" fill="#46355e" stroke="#1a1024" stroke-width="3" stroke-linejoin="round" /><path d="M122,440 L148,440 L150,498 L106,498 C106,488 114,484 122,480 Z" fill="#2b1d33" stroke="#1a1024" stroke-width="3" stroke-linejoin="round" /><path d="M158,440 L184,440 L186,480 C196,484 202,490 202,498 L158,498 Z" fill="#2b1d33" stroke="#1a1024" stroke-width="3" stroke-linejoin="round" /><path d="M128,205 L176,205 L182,335 L122,335 Z" fill="#9a6236" stroke="#1a1024" stroke-width="3" stroke-linejoin="round" /><path d="M122,316 L182,316 L182,330 L122,330 Z" fill="#2a1f18" stroke="#1a1024" stroke-width="2" stroke-linejoin="round" /><rect x="146" y="318" width="10" height="10" fill="#8a7147" stroke="#0b0a0e" stroke-width="1.5"/><path d="M150,140 C128,150 118,190 116,230 C112,300 110,360 104,418 L118,424 L128,300 C130,240 136,190 150,165 Z" fill="#1f7a68" stroke="#1a1024" stroke-width="3" stroke-linejoin="round" /><path d="M150,140 C172,150 186,190 188,230 C192,300 198,360 206,414 L192,420 L178,300 C174,240 166,190 150,165 Z" fill="#1f7a68" stroke="#1a1024" stroke-width="3" stroke-linejoin="round" /><g clip-path="url(#lbl)"><rect clip-path="url(#lbc)" x="60" y="100" width="140" height="340" fill="#20164a" opacity="0.32"/></g><path d="M124,128 C104,140 94,166 98,196 L114,172 C114,156 118,140 124,128 Z" fill="#135247" stroke="#1a1024" stroke-width="3" stroke-linejoin="round" /><path d="M150,108 C170,108 186,125 188,150 C189,170 182,188 170,198 L132,198 C120,186 114,168 116,148 C118,128 132,110 150,108 Z" fill="#1f7a68" stroke="#1a1024" stroke-width="3" stroke-linejoin="round" /><path d="M160,138 C174,142 180,158 176,176 C170,188 158,192 150,188 C146,172 148,150 160,138 Z" fill="#141318" stroke="#1a1024" stroke-width="2" stroke-linejoin="round" /><path d="M162,150 C172,154 175,166 171,178 C166,185 158,186 155,182 C156,170 157,158 162,150 Z" fill="#e6b48c" stroke="#1a1024" stroke-width="1.5" stroke-linejoin="round" /><path d="M163,162 l6,-1" stroke="#1a1024" stroke-width="2" stroke-linecap="round"/><path d="M174,210 C200,225 225,258 250,284 L242,298 C218,274 192,252 170,236 Z" fill="#135247" stroke="#1a1024" stroke-width="3" stroke-linejoin="round" /><path d="M226,100 Q286,290 226,480" fill="none" stroke="#1a1024" stroke-width="11" stroke-linecap="round"/><path d="M226,100 Q286,290 226,480" fill="none" stroke="#a8703c" stroke-width="6" stroke-linecap="round"/><line x1="226" y1="100" x2="226" y2="480" stroke="#fff4d6" stroke-width="1.5" opacity="0.7"/><circle cx="252" cy="291" r="8" fill="#b39880" stroke="#0b0a0e" stroke-width="2"/><path d="M246,282 L262,282 L262,300 L246,300 Z" fill="#2a1f18" stroke="#1a1024" stroke-width="2" stroke-linejoin="round" /><path d="M168,112 C182,122 188,140 188,152" fill="none" stroke="#ffd66e" stroke-width="2.5" stroke-linecap="round" filter="url(#glow)" opacity="0.95"/><path d="M198,215 C205,260 214,340 220,414" fill="none" stroke="#ffd66e" stroke-width="2.5" stroke-linecap="round" filter="url(#glow)" opacity="0.95"/><path d="M240,150 Q262,230 258,290" fill="none" stroke="#ffd66e" stroke-width="2" stroke-linecap="round" filter="url(#glow)" opacity="0.95"/><path d="M182,440 L184,470" fill="none" stroke="#ffd66e" stroke-width="2" stroke-linecap="round" filter="url(#glow)" opacity="0.95"/><path d="M122,214 l6,-8 l6,8 l-6,8 Z" fill="#62f2df" filter="url(#glow)"/></g><g id="ldead"><defs><clipPath id="ldc"><path d="M150,128 C122,132 104,166 98,206 C92,240 88,270 84,300 L98,294 L110,306 L124,296 L138,308 L152,298 L166,308 L180,296 L194,306 L208,296 C204,262 200,232 195,205 C190,165 175,134 150,128 Z"/></clipPath><clipPath id="ldl"><rect x="0" y="0" width="140" height="520"/></clipPath><radialGradient id="ldsig"><stop offset="0" stop-color="#ffd66e" stop-opacity="0.55"/><stop offset="1" stop-color="#ffd66e" stop-opacity="0"/></radialGradient></defs><ellipse cx="152" cy="500" rx="110" ry="20" fill="url(#ldsig)"/><ellipse cx="152" cy="500" rx="92" ry="14" fill="none" stroke="#ffd66e" stroke-width="1.5" stroke-dasharray="6 5" opacity="0.8" filter="url(#glow)"/><ellipse cx="152" cy="500" rx="80" ry="11" fill="#000" opacity="0.5"/><path d="M88,150 L118,140 L142,286 L112,296 Z" fill="#6a3f25" stroke="#1a1024" stroke-width="3" stroke-linejoin="round" /><line x1="96" y1="150" x2="80" y2="100" stroke="#1a1024" stroke-width="4"/><line x1="96" y1="150" x2="80" y2="100" stroke="#a8703c" stroke-width="2"/><path d="M80,100 l-6,10 l8,2 Z" fill="#6d8f86" stroke="#1a1024" stroke-width="1.5"/><line x1="103" y1="147" x2="91" y2="96" stroke="#1a1024" stroke-width="4"/><line x1="103" y1="147" x2="91" y2="96" stroke="#a8703c" stroke-width="2"/><path d="M91,96 l-6,10 l8,2 Z" fill="#6d8f86" stroke="#1a1024" stroke-width="1.5"/><line x1="110" y1="145" x2="103" y2="94" stroke="#1a1024" stroke-width="4"/><line x1="110" y1="145" x2="103" y2="94" stroke="#a8703c" stroke-width="2"/><path d="M103,94 l-6,10 l8,2 Z" fill="#ffd66e" stroke="#1a1024" stroke-width="1.5" filter="url(#glow)"/><line x1="117" y1="143" x2="115" y2="96" stroke="#1a1024" stroke-width="4"/><line x1="117" y1="143" x2="115" y2="96" stroke="#a8703c" stroke-width="2"/><path d="M115,96 l-6,10 l8,2 Z" fill="#6d8f86" stroke="#1a1024" stroke-width="1.5"/><line x1="124" y1="142" x2="127" y2="100" stroke="#1a1024" stroke-width="4"/><line x1="124" y1="142" x2="127" y2="100" stroke="#a8703c" stroke-width="2"/><path d="M127,100 l-6,10 l8,2 Z" fill="#6d8f86" stroke="#1a1024" stroke-width="1.5"/><path d="M126,318 L150,318 L134,470 L110,470 Z" fill="#46355e" stroke="#1a1024" stroke-width="3" stroke-linejoin="round" /><path d="M152,318 L178,318 L198,470 L172,470 Z" fill="#46355e" stroke="#1a1024" stroke-width="3" stroke-linejoin="round" /><path d="M106,440 L134,440 L134,498 L88,498 C88,488 96,484 106,480 Z" fill="#2b1d33" stroke="#1a1024" stroke-width="3" stroke-linejoin="round" /><path d="M170,440 L198,440 L202,480 C212,484 218,490 218,498 L172,498 Z" fill="#2b1d33" stroke="#1a1024" stroke-width="3" stroke-linejoin="round" /><path d="M126,200 L178,200 L184,326 L120,326 Z" fill="#9a6236" stroke="#1a1024" stroke-width="3" stroke-linejoin="round" /><path d="M120,306 L184,306 L184,320 L120,320 Z" fill="#2a1f18" stroke="#1a1024" stroke-width="2" stroke-linejoin="round" /><path d="M134,210 L170,210 M132,236 L172,236 M130,262 L174,262" stroke="#6a3f25" stroke-width="3"/><path d="M150,128 C122,132 104,166 98,206 C92,240 88,270 84,300 L98,294 L110,306 L124,296 L138,308 L152,298 L166,308 L180,296 L194,306 L208,296 C204,262 200,232 195,205 C190,165 175,134 150,128 Z" fill="#1f7a68" stroke="#1a1024" stroke-width="3" stroke-linejoin="round" /><g clip-path="url(#ldl)"><rect clip-path="url(#ldc)" x="60" y="100" width="150" height="220" fill="#20164a" opacity="0.32"/></g><path d="M168,196 C186,190 202,200 204,218 C194,224 180,224 170,218 Z" fill="#6a3f25" stroke="#1a1024" stroke-width="3" stroke-linejoin="round" /><path d="M150,108 C170,106 184,120 184,142 C184,158 176,168 166,172 L140,172 C128,164 124,148 128,132 C132,118 140,110 150,108 Z" fill="#5a2e22" stroke="#1a1024" stroke-width="3" stroke-linejoin="round" /><path d="M158,126 C172,130 178,144 176,158 L150,162 C146,146 148,134 158,126 Z" fill="#e6b48c" stroke="#1a1024" stroke-width="1.5" stroke-linejoin="round" /><path d="M130,156 L184,152 L190,182 L128,188 Z" fill="#135247" stroke="#1a1024" stroke-width="3" stroke-linejoin="round" /><path d="M150,108 C140,104 128,110 124,122" fill="none" stroke="#1a1024" stroke-width="3"/><circle cx="168" cy="143" r="7" fill="#ffd66e" opacity="0.5" filter="url(#glow)"/><circle cx="168" cy="143" r="2.6" fill="#e9fffb"/><path d="M176,206 C202,222 228,256 256,282 L248,298 C222,274 194,252 172,234 Z" fill="#135247" stroke="#1a1024" stroke-width="3" stroke-linejoin="round" /><path d="M234,56 Q312,290 234,506" fill="none" stroke="#1a1024" stroke-width="12" stroke-linecap="round"/><path d="M234,56 Q312,290 234,506" fill="none" stroke="#a8703c" stroke-width="7" stroke-linecap="round"/><path d="M234,56 q-10,-4 -14,6" fill="none" stroke="#1a1024" stroke-width="7" stroke-linecap="round"/><path d="M234,56 q-10,-4 -14,6" fill="none" stroke="#f4ead0" stroke-width="3.5" stroke-linecap="round"/><path d="M234,506 q-10,4 -14,-6" fill="none" stroke="#1a1024" stroke-width="7" stroke-linecap="round"/><path d="M234,506 q-10,4 -14,-6" fill="none" stroke="#f4ead0" stroke-width="3.5" stroke-linecap="round"/><line x1="234" y1="56" x2="234" y2="506" stroke="#fff4d6" stroke-width="1.5" opacity="0.7"/><line x1="196" y1="289" x2="300" y2="289" stroke="#1a1024" stroke-width="5"/><line x1="196" y1="289" x2="300" y2="289" stroke="#a8703c" stroke-width="2.5"/><path d="M298,281 L318,289 L298,297 Z" fill="#ffd66e" stroke="#1a1024" stroke-width="1.5" filter="url(#glow)"/><circle cx="262" cy="291" r="8" fill="#b39880" stroke="#0b0a0e" stroke-width="2"/><path d="M255,281 L271,281 L271,301 L255,301 Z" fill="#2a1f18" stroke="#1a1024" stroke-width="2" stroke-linejoin="round" /><path d="M170,110 C182,118 186,132 184,146" fill="none" stroke="#ffd66e" stroke-width="3" stroke-linecap="round" filter="url(#glow)" opacity="0.95"/><path d="M198,212 C202,240 206,268 208,296" fill="none" stroke="#ffd66e" stroke-width="3" stroke-linecap="round" filter="url(#glow)" opacity="0.95"/><path d="M246,120 Q274,210 270,282" fill="none" stroke="#ffd66e" stroke-width="2.5" stroke-linecap="round" filter="url(#glow)" opacity="0.95"/><path d="M198,446 L202,478" fill="none" stroke="#ffd66e" stroke-width="2" stroke-linecap="round" filter="url(#glow)" opacity="0.95"/><path d="M140,222 l6,-8 l6,8 l-6,8 Z" fill="#62f2df" filter="url(#glow)"/><path d="M126,246 l5,-6 l5,6 l-5,6 Z" fill="#62f2df" filter="url(#glow)" opacity="0.8"/></g></defs><rect width="1400" height="900" fill="#1b2433"/><text x="40" y="54" fill="#fff3cf" font-size="30">Maren Thistledown: luminous look test</text><text x="40" y="84" fill="#a9c9c4" font-size="16">A bright, eerie otherworld: bold ink outlines, saturated jewel colors, flat painted shadows, gold and aquamarine glows.</text><clipPath id="clip40"><rect x="40" y="110" width="400" height="760" rx="6"/></clipPath><g clip-path="url(#clip40)"><rect x="40" y="110" width="400" height="760" fill="url(#sky)"/><rect x="67.0" y="475" width="22" height="245" fill="#8fd6c6" opacity="0.45"/><rect x="61.0" y="469" width="34" height="10" fill="#8fd6c6" opacity="0.45"/><rect x="177.0" y="534" width="22" height="186" fill="#8fd6c6" opacity="0.45"/><rect x="171.0" y="528" width="34" height="10" fill="#8fd6c6" opacity="0.45"/><rect x="271.0" y="473" width="22" height="247" fill="#8fd6c6" opacity="0.45"/><rect x="265.0" y="467" width="34" height="10" fill="#8fd6c6" opacity="0.45"/><rect x="375.0" y="470" width="22" height="250" fill="#8fd6c6" opacity="0.45"/><rect x="369.0" y="464" width="34" height="10" fill="#8fd6c6" opacity="0.45"/><path d="M260.0,720 L260.0,540 Q328.0,450 400.0,540 L400.0,720 L376.0,720 L376.0,550 Q328.0,485 284.0,550 L284.0,720 Z" fill="#a6e3d3" opacity="0.4"/><path d="M40,720 C160.0,695 320.0,710 440,698 L440,870 L40,870 Z" fill="url(#meadow)"/><path d="M272.3,779.2 q-0.3,-10.4 -0.5,-20.7" stroke="#fff0b0" stroke-width="2" fill="none" opacity="0.8"/><path d="M133.7,720.7 q3.4,-7.3 5.4,-14.6" stroke="#b9a458" stroke-width="2" fill="none" opacity="0.8"/><path d="M198.9,740.8 q-3.5,-5.6 -5.6,-11.2" stroke="#fff0b0" stroke-width="2" fill="none" opacity="0.8"/><path d="M196.0,867.7 q-3.4,-9.4 -5.4,-18.9" stroke="#fff0b0" stroke-width="2" fill="none" opacity="0.8"/><path d="M57.1,753.0 q-2.3,-9.8 -3.7,-19.5" stroke="#fff0b0" stroke-width="2" fill="none" opacity="0.8"/><path d="M327.5,738.2 q4.2,-9.0 6.7,-18.0" stroke="#b9a458" stroke-width="2" fill="none" opacity="0.8"/><path d="M331.3,783.5 q-3.7,-10.7 -5.9,-21.5" stroke="#b9a458" stroke-width="2" fill="none" opacity="0.8"/><path d="M79.0,849.6 q4.7,-5.5 7.4,-11.0" stroke="#b9a458" stroke-width="2" fill="none" opacity="0.8"/><path d="M351.6,741.7 q3.3,-6.9 5.3,-13.9" stroke="#fff0b0" stroke-width="2" fill="none" opacity="0.8"/><path d="M180.4,782.2 q4.0,-8.1 6.5,-16.2" stroke="#fff0b0" stroke-width="2" fill="none" opacity="0.8"/><path d="M406.3,865.7 q1.1,-6.0 1.7,-11.9" stroke="#fff0b0" stroke-width="2" fill="none" opacity="0.8"/><path d="M105.2,740.9 q4.0,-10.8 6.5,-21.5" stroke="#fff0b0" stroke-width="2" fill="none" opacity="0.8"/><path d="M81.6,771.7 q4.9,-8.4 7.8,-16.9" stroke="#b9a458" stroke-width="2" fill="none" opacity="0.8"/><path d="M154.0,860.5 q4.9,-10.0 7.8,-20.0" stroke="#8a8a44" stroke-width="2" fill="none" opacity="0.8"/><path d="M177.6,860.0 q-4.8,-10.3 -7.7,-20.6" stroke="#b9a458" stroke-width="2" fill="none" opacity="0.8"/><path d="M347.5,739.1 q1.1,-4.3 1.8,-8.6" stroke="#8a8a44" stroke-width="2" fill="none" opacity="0.8"/><path d="M191.1,782.0 q4.2,-7.9 6.8,-15.7" stroke="#b9a458" stroke-width="2" fill="none" opacity="0.8"/><path d="M242.2,720.2 q-4.2,-6.2 -6.8,-12.3" stroke="#fff0b0" stroke-width="2" fill="none" opacity="0.8"/><path d="M254.2,727.7 q-2.1,-10.8 -3.3,-21.6" stroke="#b9a458" stroke-width="2" fill="none" opacity="0.8"/><path d="M102.5,863.6 q-1.9,-10.1 -3.0,-20.1" stroke="#8a8a44" stroke-width="2" fill="none" opacity="0.8"/><path d="M398.7,813.3 q0.2,-7.2 0.3,-14.4" stroke="#fff0b0" stroke-width="2" fill="none" opacity="0.8"/><path d="M386.7,767.9 q4.7,-4.7 7.6,-9.4" stroke="#fff0b0" stroke-width="2" fill="none" opacity="0.8"/><path d="M148.5,774.9 q4.4,-9.0 7.0,-18.0" stroke="#b9a458" stroke-width="2" fill="none" opacity="0.8"/><path d="M431.1,791.8 q-4.9,-7.8 -7.8,-15.7" stroke="#b9a458" stroke-width="2" fill="none" opacity="0.8"/><path d="M435.0,822.8 q0.9,-6.6 1.4,-13.3" stroke="#8a8a44" stroke-width="2" fill="none" opacity="0.8"/><path d="M64.0,775.9 q1.8,-7.3 2.9,-14.5" stroke="#b9a458" stroke-width="2" fill="none" opacity="0.8"/><path d="M283.5,828.2 q0.9,-7.4 1.4,-14.9" stroke="#fff0b0" stroke-width="2" fill="none" opacity="0.8"/><path d="M48.5,814.6 q-2.0,-8.4 -3.2,-16.8" stroke="#fff0b0" stroke-width="2" fill="none" opacity="0.8"/><path d="M168.0,815.4 q-1.3,-6.2 -2.1,-12.4" stroke="#fff0b0" stroke-width="2" fill="none" opacity="0.8"/><path d="M145.7,751.9 q3.1,-4.7 5.0,-9.5" stroke="#fff0b0" stroke-width="2" fill="none" opacity="0.8"/><path d="M313.5,850.3 q1.5,-7.5 2.5,-15.0" stroke="#b9a458" stroke-width="2" fill="none" opacity="0.8"/><path d="M135.5,841.9 q2.0,-7.0 3.2,-14.1" stroke="#8a8a44" stroke-width="2" fill="none" opacity="0.8"/><path d="M280.3,727.6 q-2.8,-8.7 -4.4,-17.4" stroke="#8a8a44" stroke-width="2" fill="none" opacity="0.8"/><path d="M72.0,758.7 q0.7,-5.5 1.1,-11.1" stroke="#b9a458" stroke-width="2" fill="none" opacity="0.8"/><path d="M130.0,851.9 q-3.1,-7.7 -4.9,-15.4" stroke="#fff0b0" stroke-width="2" fill="none" opacity="0.8"/><path d="M113.4,828.2 q1.4,-9.7 2.3,-19.3" stroke="#fff0b0" stroke-width="2" fill="none" opacity="0.8"/><path d="M178.1,850.5 q2.9,-6.0 4.7,-12.1" stroke="#b9a458" stroke-width="2" fill="none" opacity="0.8"/><path d="M225.9,774.9 q0.7,-6.0 1.1,-12.1" stroke="#8a8a44" stroke-width="2" fill="none" opacity="0.8"/><path d="M408.2,846.6 q4.4,-4.0 7.1,-8.1" stroke="#fff0b0" stroke-width="2" fill="none" opacity="0.8"/><path d="M434.8,804.8 q4.3,-10.7 6.8,-21.3" stroke="#8a8a44" stroke-width="2" fill="none" opacity="0.8"/><path d="M52.9,801.5 q2.5,-9.3 4.0,-18.5" stroke="#b9a458" stroke-width="2" fill="none" opacity="0.8"/><path d="M257.5,736.5 q3.6,-10.0 5.7,-20.1" stroke="#b9a458" stroke-width="2" fill="none" opacity="0.8"/><path d="M88.0,833.3 q3.0,-4.2 4.8,-8.5" stroke="#fff0b0" stroke-width="2" fill="none" opacity="0.8"/><path d="M409.5,735.5 q0.8,-10.3 1.2,-20.6" stroke="#8a8a44" stroke-width="2" fill="none" opacity="0.8"/><path d="M232.4,851.9 q-2.6,-7.5 -4.2,-15.0" stroke="#8a8a44" stroke-width="2" fill="none" opacity="0.8"/><path d="M250.0,807.9 q1.1,-10.6 1.8,-21.1" stroke="#b9a458" stroke-width="2" fill="none" opacity="0.8"/><path d="M90.2,724.2 q3.1,-7.8 5.0,-15.6" stroke="#8a8a44" stroke-width="2" fill="none" opacity="0.8"/><path d="M180.7,840.4 q3.2,-7.7 5.1,-15.5" stroke="#8a8a44" stroke-width="2" fill="none" opacity="0.8"/><path d="M135.8,828.9 q-3.7,-10.2 -5.9,-20.5" stroke="#8a8a44" stroke-width="2" fill="none" opacity="0.8"/><path d="M235.0,784.4 q2.6,-6.8 4.1,-13.6" stroke="#8a8a44" stroke-width="2" fill="none" opacity="0.8"/><path d="M147.4,790.9 q-0.3,-7.0 -0.4,-13.9" stroke="#8a8a44" stroke-width="2" fill="none" opacity="0.8"/><path d="M382.8,753.7 q-4.5,-4.3 -7.2,-8.6" stroke="#b9a458" stroke-width="2" fill="none" opacity="0.8"/><path d="M429.9,741.8 q0.0,-4.6 0.0,-9.2" stroke="#b9a458" stroke-width="2" fill="none" opacity="0.8"/><path d="M102.8,859.2 q-1.1,-6.7 -1.8,-13.4" stroke="#b9a458" stroke-width="2" fill="none" opacity="0.8"/><path d="M184.3,841.3 q-3.8,-6.3 -6.0,-12.6" stroke="#fff0b0" stroke-width="2" fill="none" opacity="0.8"/><path d="M41.4,761.5 q0.7,-9.6 1.1,-19.1" stroke="#8a8a44" stroke-width="2" fill="none" opacity="0.8"/><path d="M189.3,779.3 q-1.2,-9.5 -1.9,-19.0" stroke="#8a8a44" stroke-width="2" fill="none" opacity="0.8"/><path d="M289.2,805.3 q-0.0,-6.6 -0.1,-13.2" stroke="#fff0b0" stroke-width="2" fill="none" opacity="0.8"/><path d="M166.0,727.5 q-4.8,-6.9 -7.7,-13.9" stroke="#8a8a44" stroke-width="2" fill="none" opacity="0.8"/><path d="M254.3,765.7 q-0.8,-4.5 -1.2,-9.0" stroke="#b9a458" stroke-width="2" fill="none" opacity="0.8"/><path d="M92.1,865.8 q4.7,-6.3 7.5,-12.6" stroke="#fff0b0" stroke-width="2" fill="none" opacity="0.8"/><path d="M356.4,830.7 q-3.8,-7.2 -6.0,-14.5" stroke="#fff0b0" stroke-width="2" fill="none" opacity="0.8"/><path d="M304.9,736.9 q1.7,-9.5 2.7,-19.1" stroke="#fff0b0" stroke-width="2" fill="none" opacity="0.8"/><path d="M167.4,790.2 q2.2,-9.7 3.5,-19.4" stroke="#b9a458" stroke-width="2" fill="none" opacity="0.8"/><path d="M97.4,753.9 q-4.1,-4.3 -6.5,-8.6" stroke="#8a8a44" stroke-width="2" fill="none" opacity="0.8"/><path d="M303.7,813.6 q-1.6,-9.7 -2.5,-19.5" stroke="#8a8a44" stroke-width="2" fill="none" opacity="0.8"/><path d="M50.2,852.7 q2.0,-7.4 3.1,-14.7" stroke="#b9a458" stroke-width="2" fill="none" opacity="0.8"/><path d="M271.6,750.2 q2.7,-4.3 4.3,-8.5" stroke="#fff0b0" stroke-width="2" fill="none" opacity="0.8"/><path d="M251.6,834.3 q-4.0,-7.9 -6.4,-15.8" stroke="#fff0b0" stroke-width="2" fill="none" opacity="0.8"/><path d="M64.5,821.4 q3.3,-7.9 5.2,-15.9" stroke="#8a8a44" stroke-width="2" fill="none" opacity="0.8"/><circle cx="439.3" cy="576.3" r="2.4" fill="#ffffff" filter="url(#bloom)" opacity="0.9"/><circle cx="341.4" cy="409.9" r="2.2" fill="#62f2df" filter="url(#bloom)" opacity="0.9"/><circle cx="415.5" cy="517.4" r="3.4" fill="#62f2df" filter="url(#bloom)" opacity="0.9"/><circle cx="240.1" cy="792.2" r="2.3" fill="#ffffff" filter="url(#bloom)" opacity="0.9"/><circle cx="426.8" cy="424.1" r="2.6" fill="#ffffff" filter="url(#bloom)" opacity="0.9"/><circle cx="309.5" cy="491.3" r="2.5" fill="#ffffff" filter="url(#bloom)" opacity="0.9"/><circle cx="200.4" cy="735.8" r="1.8" fill="#62f2df" filter="url(#bloom)" opacity="0.9"/><circle cx="339.3" cy="755.0" r="2.5" fill="#62f2df" filter="url(#bloom)" opacity="0.9"/><circle cx="274.6" cy="716.3" r="1.8" fill="#ffd66e" filter="url(#bloom)" opacity="0.9"/><circle cx="98.6" cy="490.3" r="3.4" fill="#ffffff" filter="url(#bloom)" opacity="0.9"/><circle cx="255.2" cy="664.5" r="2.8" fill="#62f2df" filter="url(#bloom)" opacity="0.9"/><circle cx="278.1" cy="535.8" r="3.5" fill="#ffd66e" filter="url(#bloom)" opacity="0.9"/><circle cx="162.9" cy="326.9" r="3.1" fill="#ffd66e" filter="url(#bloom)" opacity="0.9"/><circle cx="108.9" cy="387.9" r="2.1" fill="#ffd66e" filter="url(#bloom)" opacity="0.9"/><circle cx="207.4" cy="610.4" r="2.9" fill="#ffd66e" filter="url(#bloom)" opacity="0.9"/><circle cx="227.2" cy="700.8" r="3.1" fill="#ffffff" filter="url(#bloom)" opacity="0.9"/><circle cx="51.1" cy="805.2" r="1.6" fill="#62f2df" filter="url(#bloom)" opacity="0.9"/><circle cx="353.2" cy="732.0" r="1.6" fill="#ffd66e" filter="url(#bloom)" opacity="0.9"/><circle cx="396.4" cy="577.8" r="3.1" fill="#ffd66e" filter="url(#bloom)" opacity="0.9"/><circle cx="423.5" cy="713.6" r="2.0" fill="#ffd66e" filter="url(#bloom)" opacity="0.9"/><circle cx="350.3" cy="240.7" r="2.7" fill="#ffffff" filter="url(#bloom)" opacity="0.9"/><circle cx="383.4" cy="743.8" r="2.0" fill="#ffd66e" filter="url(#bloom)" opacity="0.9"/><circle cx="165.4" cy="429.4" r="3.0" fill="#ffd66e" filter="url(#bloom)" opacity="0.9"/><circle cx="87.2" cy="324.4" r="3.3" fill="#ffd66e" filter="url(#bloom)" opacity="0.9"/><circle cx="182.7" cy="533.0" r="2.9" fill="#ffd66e" filter="url(#bloom)" opacity="0.9"/><circle cx="51.8" cy="368.8" r="2.3" fill="#ffd66e" filter="url(#bloom)" opacity="0.9"/><circle cx="124.0" cy="536.2" r="3.4" fill="#62f2df" filter="url(#bloom)" opacity="0.9"/><circle cx="90.2" cy="360.4" r="3.3" fill="#ffd66e" filter="url(#bloom)" opacity="0.9"/><rect x="40" y="110" width="400" height="760" fill="url(#sun)"/><ellipse cx="240.0" cy="812" rx="150" ry="18" fill="#3a3016" opacity="0.4"/><use href="#lbase" transform="translate(51.0,178) scale(1.26)"/></g><rect x="40" y="110" width="400" height="760" rx="6" fill="none" stroke="#3a5566"/><rect x="52" y="122" width="376" height="58" rx="4" fill="#1b2433" opacity="0.72"/><text x="64" y="146" fill="#fff3cf" font-size="22">Base form</text><text x="64" y="170" fill="#cfe7e2" font-size="14">Same shapes; jewel colors, gold light, flat shadows.</text><clipPath id="clip470"><rect x="470" y="110" width="400" height="760" rx="6"/></clipPath><g clip-path="url(#clip470)"><rect x="470" y="110" width="400" height="760" fill="url(#sky)"/><rect x="500.0" y="531" width="22" height="189" fill="#8fd6c6" opacity="0.45"/><rect x="494.0" y="525" width="34" height="10" fill="#8fd6c6" opacity="0.45"/><rect x="602.0" y="467" width="22" height="253" fill="#8fd6c6" opacity="0.45"/><rect x="596.0" y="461" width="34" height="10" fill="#8fd6c6" opacity="0.45"/><rect x="691.0" y="541" width="22" height="179" fill="#8fd6c6" opacity="0.45"/><rect x="685.0" y="535" width="34" height="10" fill="#8fd6c6" opacity="0.45"/><rect x="807.0" y="538" width="22" height="182" fill="#8fd6c6" opacity="0.45"/><rect x="801.0" y="532" width="34" height="10" fill="#8fd6c6" opacity="0.45"/><path d="M690.0,720 L690.0,540 Q758.0,450 830.0,540 L830.0,720 L806.0,720 L806.0,550 Q758.0,485 714.0,550 L714.0,720 Z" fill="#a6e3d3" opacity="0.4"/><path d="M470,720 C590.0,695 750.0,710 870,698 L870,870 L470,870 Z" fill="url(#meadow)"/><path d="M616.3,861.3 q-4.6,-7.6 -7.4,-15.1" stroke="#b9a458" stroke-width="2" fill="none" opacity="0.8"/><path d="M637.3,833.9 q-4.4,-7.9 -7.1,-15.7" stroke="#fff0b0" stroke-width="2" fill="none" opacity="0.8"/><path d="M519.5,836.5 q4.5,-8.4 7.2,-16.8" stroke="#fff0b0" stroke-width="2" fill="none" opacity="0.8"/><path d="M704.2,862.6 q0.6,-5.5 0.9,-11.1" stroke="#8a8a44" stroke-width="2" fill="none" opacity="0.8"/><path d="M585.8,848.4 q-1.9,-4.8 -3.1,-9.6" stroke="#fff0b0" stroke-width="2" fill="none" opacity="0.8"/><path d="M542.3,782.8 q-1.3,-8.5 -2.0,-16.9" stroke="#fff0b0" stroke-width="2" fill="none" opacity="0.8"/><path d="M754.8,785.3 q-0.0,-8.3 -0.1,-16.7" stroke="#fff0b0" stroke-width="2" fill="none" opacity="0.8"/><path d="M641.0,822.9 q-0.5,-8.1 -0.7,-16.2" stroke="#b9a458" stroke-width="2" fill="none" opacity="0.8"/><path d="M569.4,843.0 q-4.2,-9.5 -6.7,-18.9" stroke="#b9a458" stroke-width="2" fill="none" opacity="0.8"/><path d="M680.1,738.7 q-2.1,-9.1 -3.4,-18.2" stroke="#8a8a44" stroke-width="2" fill="none" opacity="0.8"/><path d="M517.2,807.3 q-3.5,-9.3 -5.6,-18.6" stroke="#b9a458" stroke-width="2" fill="none" opacity="0.8"/><path d="M638.7,725.7 q0.6,-4.5 0.9,-9.1" stroke="#b9a458" stroke-width="2" fill="none" opacity="0.8"/><path d="M606.0,817.5 q3.0,-7.5 4.8,-15.0" stroke="#8a8a44" stroke-width="2" fill="none" opacity="0.8"/><path d="M806.0,728.3 q1.6,-7.3 2.6,-14.6" stroke="#8a8a44" stroke-width="2" fill="none" opacity="0.8"/><path d="M762.5,823.6 q1.8,-8.0 2.9,-16.1" stroke="#b9a458" stroke-width="2" fill="none" opacity="0.8"/><path d="M583.8,812.1 q-4.8,-8.7 -7.6,-17.4" stroke="#b9a458" stroke-width="2" fill="none" opacity="0.8"/><path d="M612.2,778.4 q-2.8,-7.5 -4.5,-14.9" stroke="#b9a458" stroke-width="2" fill="none" opacity="0.8"/><path d="M521.7,832.9 q3.7,-6.7 5.9,-13.5" stroke="#8a8a44" stroke-width="2" fill="none" opacity="0.8"/><path d="M536.5,809.8 q-3.6,-5.9 -5.8,-11.9" stroke="#b9a458" stroke-width="2" fill="none" opacity="0.8"/><path d="M815.6,828.2 q-1.4,-6.9 -2.3,-13.8" stroke="#b9a458" stroke-width="2" fill="none" opacity="0.8"/><path d="M853.1,847.4 q-2.7,-5.2 -4.3,-10.5" stroke="#8a8a44" stroke-width="2" fill="none" opacity="0.8"/><path d="M474.8,745.3 q-2.2,-5.3 -3.5,-10.6" stroke="#8a8a44" stroke-width="2" fill="none" opacity="0.8"/><path d="M637.6,814.6 q4.5,-8.0 7.2,-15.9" stroke="#fff0b0" stroke-width="2" fill="none" opacity="0.8"/><path d="M813.7,727.5 q2.4,-8.6 3.8,-17.2" stroke="#b9a458" stroke-width="2" fill="none" opacity="0.8"/><path d="M829.8,753.0 q3.0,-10.1 4.8,-20.2" stroke="#b9a458" stroke-width="2" fill="none" opacity="0.8"/><path d="M629.2,810.9 q-1.0,-7.4 -1.6,-14.7" stroke="#8a8a44" stroke-width="2" fill="none" opacity="0.8"/><path d="M496.9,838.7 q-1.6,-5.1 -2.6,-10.3" stroke="#8a8a44" stroke-width="2" fill="none" opacity="0.8"/><path d="M511.0,785.0 q4.5,-7.8 7.2,-15.5" stroke="#fff0b0" stroke-width="2" fill="none" opacity="0.8"/><path d="M480.2,738.9 q-3.5,-8.3 -5.6,-16.6" stroke="#b9a458" stroke-width="2" fill="none" opacity="0.8"/><path d="M852.2,779.7 q-3.8,-7.3 -6.2,-14.6" stroke="#b9a458" stroke-width="2" fill="none" opacity="0.8"/><path d="M867.2,800.1 q-4.1,-7.4 -6.6,-14.8" stroke="#8a8a44" stroke-width="2" fill="none" opacity="0.8"/><path d="M769.9,758.9 q1.9,-7.4 3.1,-14.7" stroke="#fff0b0" stroke-width="2" fill="none" opacity="0.8"/><path d="M479.2,727.4 q-3.5,-7.7 -5.7,-15.4" stroke="#fff0b0" stroke-width="2" fill="none" opacity="0.8"/><path d="M835.7,756.3 q1.4,-6.1 2.3,-12.2" stroke="#8a8a44" stroke-width="2" fill="none" opacity="0.8"/><path d="M748.5,830.8 q-3.3,-6.6 -5.3,-13.1" stroke="#8a8a44" stroke-width="2" fill="none" opacity="0.8"/><path d="M683.0,753.1 q-2.8,-6.3 -4.4,-12.6" stroke="#8a8a44" stroke-width="2" fill="none" opacity="0.8"/><path d="M792.4,747.3 q-2.7,-9.2 -4.4,-18.4" stroke="#fff0b0" stroke-width="2" fill="none" opacity="0.8"/><path d="M667.1,760.3 q2.9,-10.9 4.6,-21.9" stroke="#b9a458" stroke-width="2" fill="none" opacity="0.8"/><path d="M573.7,766.1 q-0.5,-10.7 -0.8,-21.4" stroke="#fff0b0" stroke-width="2" fill="none" opacity="0.8"/><path d="M865.2,726.7 q-2.8,-6.6 -4.5,-13.1" stroke="#8a8a44" stroke-width="2" fill="none" opacity="0.8"/><path d="M658.0,819.3 q4.9,-7.4 7.8,-14.8" stroke="#fff0b0" stroke-width="2" fill="none" opacity="0.8"/><path d="M806.2,798.1 q3.0,-8.6 4.8,-17.1" stroke="#8a8a44" stroke-width="2" fill="none" opacity="0.8"/><path d="M803.9,852.0 q2.1,-6.7 3.4,-13.4" stroke="#8a8a44" stroke-width="2" fill="none" opacity="0.8"/><path d="M661.2,843.2 q-1.7,-9.5 -2.7,-19.0" stroke="#fff0b0" stroke-width="2" fill="none" opacity="0.8"/><path d="M628.3,809.8 q2.2,-10.6 3.6,-21.3" stroke="#8a8a44" stroke-width="2" fill="none" opacity="0.8"/><path d="M867.2,865.9 q-0.3,-8.1 -0.6,-16.3" stroke="#fff0b0" stroke-width="2" fill="none" opacity="0.8"/><path d="M528.5,746.0 q1.6,-10.9 2.5,-21.7" stroke="#b9a458" stroke-width="2" fill="none" opacity="0.8"/><path d="M532.4,787.8 q3.0,-4.1 4.8,-8.3" stroke="#fff0b0" stroke-width="2" fill="none" opacity="0.8"/><path d="M729.9,791.0 q-0.7,-10.5 -1.1,-21.1" stroke="#8a8a44" stroke-width="2" fill="none" opacity="0.8"/><path d="M800.5,838.3 q-2.1,-5.8 -3.3,-11.5" stroke="#8a8a44" stroke-width="2" fill="none" opacity="0.8"/><path d="M775.5,821.1 q3.3,-7.8 5.3,-15.6" stroke="#8a8a44" stroke-width="2" fill="none" opacity="0.8"/><path d="M834.0,816.9 q0.8,-7.2 1.3,-14.4" stroke="#fff0b0" stroke-width="2" fill="none" opacity="0.8"/><path d="M638.3,732.3 q0.3,-7.5 0.5,-15.0" stroke="#fff0b0" stroke-width="2" fill="none" opacity="0.8"/><path d="M674.2,739.1 q1.1,-9.4 1.7,-18.9" stroke="#8a8a44" stroke-width="2" fill="none" opacity="0.8"/><path d="M538.9,799.0 q0.6,-9.1 0.9,-18.2" stroke="#b9a458" stroke-width="2" fill="none" opacity="0.8"/><path d="M742.9,790.4 q2.8,-7.4 4.4,-14.8" stroke="#fff0b0" stroke-width="2" fill="none" opacity="0.8"/><path d="M492.7,841.3 q-4.0,-4.3 -6.4,-8.6" stroke="#b9a458" stroke-width="2" fill="none" opacity="0.8"/><path d="M694.7,756.0 q-0.6,-10.4 -0.9,-20.8" stroke="#fff0b0" stroke-width="2" fill="none" opacity="0.8"/><path d="M859.3,779.1 q-2.2,-5.4 -3.6,-10.8" stroke="#fff0b0" stroke-width="2" fill="none" opacity="0.8"/><path d="M683.3,798.3 q2.0,-10.6 3.2,-21.2" stroke="#b9a458" stroke-width="2" fill="none" opacity="0.8"/><path d="M839.1,736.1 q-0.5,-5.4 -0.8,-10.8" stroke="#b9a458" stroke-width="2" fill="none" opacity="0.8"/><path d="M518.6,803.7 q-2.6,-4.5 -4.1,-9.0" stroke="#8a8a44" stroke-width="2" fill="none" opacity="0.8"/><path d="M555.1,824.6 q2.8,-4.9 4.4,-9.7" stroke="#fff0b0" stroke-width="2" fill="none" opacity="0.8"/><path d="M727.4,815.1 q-3.6,-5.8 -5.8,-11.5" stroke="#b9a458" stroke-width="2" fill="none" opacity="0.8"/><path d="M557.8,727.1 q-0.1,-6.8 -0.2,-13.6" stroke="#fff0b0" stroke-width="2" fill="none" opacity="0.8"/><path d="M803.0,845.8 q0.2,-7.0 0.2,-14.0" stroke="#b9a458" stroke-width="2" fill="none" opacity="0.8"/><path d="M638.5,816.5 q-1.3,-4.6 -2.1,-9.3" stroke="#b9a458" stroke-width="2" fill="none" opacity="0.8"/><path d="M691.6,803.9 q-1.7,-4.1 -2.7,-8.3" stroke="#fff0b0" stroke-width="2" fill="none" opacity="0.8"/><path d="M588.2,725.9 q4.2,-4.8 6.7,-9.6" stroke="#8a8a44" stroke-width="2" fill="none" opacity="0.8"/><path d="M858.7,854.3 q-4.6,-5.9 -7.4,-11.7" stroke="#8a8a44" stroke-width="2" fill="none" opacity="0.8"/><circle cx="578.2" cy="235.5" r="2.3" fill="#ffffff" filter="url(#bloom)" opacity="0.9"/><circle cx="797.6" cy="320.7" r="1.8" fill="#ffffff" filter="url(#bloom)" opacity="0.9"/><circle cx="698.2" cy="612.3" r="1.7" fill="#ffd66e" filter="url(#bloom)" opacity="0.9"/><circle cx="789.8" cy="271.0" r="3.3" fill="#62f2df" filter="url(#bloom)" opacity="0.9"/><circle cx="845.3" cy="568.7" r="3.1" fill="#ffd66e" filter="url(#bloom)" opacity="0.9"/><circle cx="713.3" cy="296.8" r="2.0" fill="#ffd66e" filter="url(#bloom)" opacity="0.9"/><circle cx="651.5" cy="373.8" r="2.6" fill="#62f2df" filter="url(#bloom)" opacity="0.9"/><circle cx="718.7" cy="178.5" r="2.9" fill="#ffd66e" filter="url(#bloom)" opacity="0.9"/><circle cx="857.7" cy="322.9" r="1.9" fill="#62f2df" filter="url(#bloom)" opacity="0.9"/><circle cx="721.5" cy="500.5" r="1.9" fill="#62f2df" filter="url(#bloom)" opacity="0.9"/><circle cx="670.0" cy="267.4" r="2.2" fill="#ffd66e" filter="url(#bloom)" opacity="0.9"/><circle cx="867.8" cy="174.4" r="1.5" fill="#ffffff" filter="url(#bloom)" opacity="0.9"/><circle cx="690.4" cy="275.0" r="2.4" fill="#62f2df" filter="url(#bloom)" opacity="0.9"/><circle cx="512.5" cy="690.5" r="2.4" fill="#62f2df" filter="url(#bloom)" opacity="0.9"/><circle cx="688.4" cy="736.6" r="3.4" fill="#62f2df" filter="url(#bloom)" opacity="0.9"/><circle cx="745.1" cy="798.4" r="2.2" fill="#ffffff" filter="url(#bloom)" opacity="0.9"/><circle cx="761.5" cy="242.2" r="3.5" fill="#ffd66e" filter="url(#bloom)" opacity="0.9"/><circle cx="804.8" cy="159.4" r="2.8" fill="#62f2df" filter="url(#bloom)" opacity="0.9"/><circle cx="642.3" cy="186.6" r="2.8" fill="#62f2df" filter="url(#bloom)" opacity="0.9"/><circle cx="818.2" cy="592.6" r="2.1" fill="#ffd66e" filter="url(#bloom)" opacity="0.9"/><circle cx="747.1" cy="179.9" r="1.9" fill="#62f2df" filter="url(#bloom)" opacity="0.9"/><circle cx="648.3" cy="323.7" r="3.4" fill="#ffffff" filter="url(#bloom)" opacity="0.9"/><circle cx="599.4" cy="172.7" r="3.3" fill="#ffd66e" filter="url(#bloom)" opacity="0.9"/><circle cx="612.6" cy="150.7" r="2.3" fill="#62f2df" filter="url(#bloom)" opacity="0.9"/><circle cx="581.6" cy="583.0" r="2.0" fill="#ffd66e" filter="url(#bloom)" opacity="0.9"/><circle cx="506.3" cy="689.2" r="1.8" fill="#ffffff" filter="url(#bloom)" opacity="0.9"/><circle cx="486.7" cy="164.8" r="2.1" fill="#ffd66e" filter="url(#bloom)" opacity="0.9"/><circle cx="503.8" cy="782.0" r="3.2" fill="#ffd66e" filter="url(#bloom)" opacity="0.9"/><rect x="470" y="110" width="400" height="760" fill="url(#sun)"/><ellipse cx="670.0" cy="812" rx="150" ry="18" fill="#3a3016" opacity="0.4"/><use href="#ldead" transform="translate(481.0,178) scale(1.26)"/></g><rect x="470" y="110" width="400" height="760" rx="6" fill="none" stroke="#3a5566"/><rect x="482" y="122" width="376" height="58" rx="4" fill="#1b2433" opacity="0.72"/><text x="494" y="146" fill="#fff3cf" font-size="22">Deadeye (transformed)</text><text x="494" y="170" fill="#cfe7e2" font-size="14">The rift shows as aquamarine: eye, arrow, runes, sigil.</text><rect x="900" y="110" width="460" height="360" rx="6" fill="#141c28" stroke="#3a5566"/><text x="920" y="146" fill="#fff3cf" font-size="22">Palette</text><rect x="924" y="170" width="92" height="56" rx="4" fill="#fff3cf" stroke="#0b0a0e" stroke-width="1.5"/><text x="924" y="244" fill="#cfe7e2" font-size="13">Sky</text><rect x="1032" y="170" width="92" height="56" rx="4" fill="#bff0e2" stroke="#0b0a0e" stroke-width="1.5"/><text x="1032" y="244" fill="#cfe7e2" font-size="13">Mist</text><rect x="1140" y="170" width="92" height="56" rx="4" fill="#c8b56a" stroke="#0b0a0e" stroke-width="1.5"/><text x="1140" y="244" fill="#cfe7e2" font-size="13">Meadow</text><rect x="1248" y="170" width="92" height="56" rx="4" fill="#6f6a38" stroke="#0b0a0e" stroke-width="1.5"/><text x="1248" y="244" fill="#cfe7e2" font-size="13">Deep</text><rect x="924" y="266" width="92" height="56" rx="4" fill="#1f7a68" stroke="#0b0a0e" stroke-width="1.5"/><text x="924" y="340" fill="#cfe7e2" font-size="13">Cloak</text><rect x="1032" y="266" width="92" height="56" rx="4" fill="#9a6236" stroke="#0b0a0e" stroke-width="1.5"/><text x="1032" y="340" fill="#cfe7e2" font-size="13">Leather</text><rect x="1140" y="266" width="92" height="56" rx="4" fill="#46355e" stroke="#0b0a0e" stroke-width="1.5"/><text x="1140" y="340" fill="#cfe7e2" font-size="13">Plum</text><rect x="1248" y="266" width="92" height="56" rx="4" fill="#e6b48c" stroke="#0b0a0e" stroke-width="1.5"/><text x="1248" y="340" fill="#cfe7e2" font-size="13">Skin</text><rect x="924" y="362" width="92" height="56" rx="4" fill="#ffd66e" stroke="#0b0a0e" stroke-width="1.5"/><text x="924" y="436" fill="#cfe7e2" font-size="13">Rift gold</text><rect x="1032" y="362" width="92" height="56" rx="4" fill="#62f2df" stroke="#0b0a0e" stroke-width="1.5"/><text x="1032" y="436" fill="#cfe7e2" font-size="13">Aquamarine</text><rect x="1140" y="362" width="92" height="56" rx="4" fill="#1a1024" stroke="#0b0a0e" stroke-width="1.5"/><text x="1140" y="436" fill="#cfe7e2" font-size="13">Ink</text><rect x="1248" y="362" width="92" height="56" rx="4" fill="#f4ead0" stroke="#0b0a0e" stroke-width="1.5"/><text x="1248" y="436" fill="#cfe7e2" font-size="13">Bone</text><rect x="900" y="490" width="460" height="380" rx="6" fill="#141c28" stroke="#3a5566"/><text x="920" y="526" fill="#fff3cf" font-size="22">At arena size</text><text x="920" y="550" fill="#a9c9c4" font-size="14">On a golden meadow: the teal cloak and ink outlines pop.</text><clipPath id="arena"><rect x="916" y="566" width="428" height="260" rx="4"/></clipPath><g clip-path="url(#arena)"><rect x="916" y="566" width="428" height="260" fill="url(#meadow)"/><path d="M1182.6,758.9 q2,-5 3,-10" stroke="#fff0b0" stroke-width="2" fill="none" opacity="0.7"/><path d="M1319.4,758.4 q2,-5 3,-10" stroke="#fff0b0" stroke-width="2" fill="none" opacity="0.7"/><path d="M928.4,687.1 q2,-5 3,-10" stroke="#8a8a44" stroke-width="2" fill="none" opacity="0.7"/><path d="M1193.8,800.2 q2,-5 3,-10" stroke="#8a8a44" stroke-width="2" fill="none" opacity="0.7"/><path d="M1075.1,791.8 q2,-5 3,-10" stroke="#b9a458" stroke-width="2" fill="none" opacity="0.7"/><path d="M1148.7,715.2 q2,-5 3,-10" stroke="#8a8a44" stroke-width="2" fill="none" opacity="0.7"/><path d="M1228.9,672.1 q2,-5 3,-10" stroke="#8a8a44" stroke-width="2" fill="none" opacity="0.7"/><path d="M1308.2,765.1 q2,-5 3,-10" stroke="#8a8a44" stroke-width="2" fill="none" opacity="0.7"/><path d="M1242.1,584.7 q2,-5 3,-10" stroke="#fff0b0" stroke-width="2" fill="none" opacity="0.7"/><path d="M1180.3,598.9 q2,-5 3,-10" stroke="#8a8a44" stroke-width="2" fill="none" opacity="0.7"/><path d="M1332.2,567.4 q2,-5 3,-10" stroke="#8a8a44" stroke-width="2" fill="none" opacity="0.7"/><path d="M1326.9,609.1 q2,-5 3,-10" stroke="#8a8a44" stroke-width="2" fill="none" opacity="0.7"/><path d="M1039.8,816.0 q2,-5 3,-10" stroke="#fff0b0" stroke-width="2" fill="none" opacity="0.7"/><path d="M1291.0,728.7 q2,-5 3,-10" stroke="#8a8a44" stroke-width="2" fill="none" opacity="0.7"/><path d="M1318.7,745.6 q2,-5 3,-10" stroke="#b9a458" stroke-width="2" fill="none" opacity="0.7"/><path d="M1043.9,659.9 q2,-5 3,-10" stroke="#8a8a44" stroke-width="2" fill="none" opacity="0.7"/><path d="M1316.5,634.6 q2,-5 3,-10" stroke="#b9a458" stroke-width="2" fill="none" opacity="0.7"/><path d="M1045.0,722.8 q2,-5 3,-10" stroke="#8a8a44" stroke-width="2" fill="none" opacity="0.7"/><path d="M1171.1,750.0 q2,-5 3,-10" stroke="#8a8a44" stroke-width="2" fill="none" opacity="0.7"/><path d="M1048.7,778.8 q2,-5 3,-10" stroke="#b9a458" stroke-width="2" fill="none" opacity="0.7"/><path d="M1214.1,614.0 q2,-5 3,-10" stroke="#b9a458" stroke-width="2" fill="none" opacity="0.7"/><path d="M1217.6,580.8 q2,-5 3,-10" stroke="#8a8a44" stroke-width="2" fill="none" opacity="0.7"/><path d="M1322.3,659.0 q2,-5 3,-10" stroke="#b9a458" stroke-width="2" fill="none" opacity="0.7"/><path d="M923.7,770.8 q2,-5 3,-10" stroke="#b9a458" stroke-width="2" fill="none" opacity="0.7"/><path d="M1077.1,784.7 q2,-5 3,-10" stroke="#b9a458" stroke-width="2" fill="none" opacity="0.7"/><path d="M936.0,613.0 q2,-5 3,-10" stroke="#8a8a44" stroke-width="2" fill="none" opacity="0.7"/><path d="M966.9,630.0 q2,-5 3,-10" stroke="#b9a458" stroke-width="2" fill="none" opacity="0.7"/><path d="M1063.4,658.2 q2,-5 3,-10" stroke="#fff0b0" stroke-width="2" fill="none" opacity="0.7"/><path d="M1023.4,686.3 q2,-5 3,-10" stroke="#fff0b0" stroke-width="2" fill="none" opacity="0.7"/><path d="M1236.3,773.3 q2,-5 3,-10" stroke="#b9a458" stroke-width="2" fill="none" opacity="0.7"/><path d="M931.7,811.9 q2,-5 3,-10" stroke="#8a8a44" stroke-width="2" fill="none" opacity="0.7"/><path d="M1005.2,699.3 q2,-5 3,-10" stroke="#b9a458" stroke-width="2" fill="none" opacity="0.7"/><path d="M1308.9,654.4 q2,-5 3,-10" stroke="#fff0b0" stroke-width="2" fill="none" opacity="0.7"/><path d="M1149.3,647.2 q2,-5 3,-10" stroke="#b9a458" stroke-width="2" fill="none" opacity="0.7"/><path d="M1047.0,773.7 q2,-5 3,-10" stroke="#fff0b0" stroke-width="2" fill="none" opacity="0.7"/><path d="M979.7,745.2 q2,-5 3,-10" stroke="#b9a458" stroke-width="2" fill="none" opacity="0.7"/><path d="M985.1,578.6 q2,-5 3,-10" stroke="#fff0b0" stroke-width="2" fill="none" opacity="0.7"/><path d="M1144.4,671.5 q2,-5 3,-10" stroke="#8a8a44" stroke-width="2" fill="none" opacity="0.7"/><path d="M1233.0,655.4 q2,-5 3,-10" stroke="#b9a458" stroke-width="2" fill="none" opacity="0.7"/><path d="M1111.0,675.7 q2,-5 3,-10" stroke="#8a8a44" stroke-width="2" fill="none" opacity="0.7"/><path d="M1335.0,732.0 q2,-5 3,-10" stroke="#b9a458" stroke-width="2" fill="none" opacity="0.7"/><path d="M1059.0,619.8 q2,-5 3,-10" stroke="#fff0b0" stroke-width="2" fill="none" opacity="0.7"/><path d="M1157.4,600.5 q2,-5 3,-10" stroke="#b9a458" stroke-width="2" fill="none" opacity="0.7"/><path d="M961.6,679.0 q2,-5 3,-10" stroke="#8a8a44" stroke-width="2" fill="none" opacity="0.7"/><path d="M941.2,675.4 q2,-5 3,-10" stroke="#8a8a44" stroke-width="2" fill="none" opacity="0.7"/><path d="M1110.0,825.8 q2,-5 3,-10" stroke="#8a8a44" stroke-width="2" fill="none" opacity="0.7"/><path d="M1333.7,683.9 q2,-5 3,-10" stroke="#b9a458" stroke-width="2" fill="none" opacity="0.7"/><path d="M1210.8,648.6 q2,-5 3,-10" stroke="#b9a458" stroke-width="2" fill="none" opacity="0.7"/><path d="M1040.6,671.0 q2,-5 3,-10" stroke="#8a8a44" stroke-width="2" fill="none" opacity="0.7"/><path d="M964.2,779.7 q2,-5 3,-10" stroke="#fff0b0" stroke-width="2" fill="none" opacity="0.7"/><path d="M1326.8,729.0 q2,-5 3,-10" stroke="#b9a458" stroke-width="2" fill="none" opacity="0.7"/><path d="M1287.4,612.8 q2,-5 3,-10" stroke="#b9a458" stroke-width="2" fill="none" opacity="0.7"/><path d="M1032.5,769.3 q2,-5 3,-10" stroke="#fff0b0" stroke-width="2" fill="none" opacity="0.7"/><path d="M1070.6,770.4 q2,-5 3,-10" stroke="#b9a458" stroke-width="2" fill="none" opacity="0.7"/><path d="M1213.3,738.6 q2,-5 3,-10" stroke="#b9a458" stroke-width="2" fill="none" opacity="0.7"/><path d="M1071.5,749.2 q2,-5 3,-10" stroke="#b9a458" stroke-width="2" fill="none" opacity="0.7"/><path d="M1273.5,634.9 q2,-5 3,-10" stroke="#fff0b0" stroke-width="2" fill="none" opacity="0.7"/><path d="M1222.4,814.8 q2,-5 3,-10" stroke="#b9a458" stroke-width="2" fill="none" opacity="0.7"/><path d="M1194.1,717.0 q2,-5 3,-10" stroke="#8a8a44" stroke-width="2" fill="none" opacity="0.7"/><path d="M1119.0,767.2 q2,-5 3,-10" stroke="#b9a458" stroke-width="2" fill="none" opacity="0.7"/></g><g fill="none" stroke="#fff3cf" stroke-width="1.5" opacity="0.35"><polygon points="1032.0,620.0 1006.0,665.0 954.0,665.0 928.0,620.0 954.0,575.0 1006.0,575.0"/><polygon points="1110.0,665.0 1084.0,710.0 1032.0,710.0 1006.0,665.0 1032.0,620.0 1084.0,620.0"/><polygon points="1188.0,620.0 1162.0,665.0 1110.0,665.0 1084.0,620.0 1110.0,575.0 1162.0,575.0"/><polygon points="1266.0,665.0 1240.0,710.0 1188.0,710.0 1162.0,665.0 1188.0,620.0 1240.0,620.0"/><polygon points="1344.0,620.0 1318.0,665.0 1266.0,665.0 1240.0,620.0 1266.0,575.0 1318.0,575.0"/><polygon points="1032.0,710.0 1006.0,755.0 954.0,755.0 928.0,710.0 954.0,665.0 1006.0,665.0"/><polygon points="1110.0,755.0 1084.0,800.0 1032.0,800.0 1006.0,755.0 1032.0,710.0 1084.0,710.0"/><polygon points="1188.0,710.0 1162.0,755.0 1110.0,755.0 1084.0,710.0 1110.0,665.0 1162.0,665.0"/><polygon points="1266.0,755.0 1240.0,800.0 1188.0,800.0 1162.0,755.0 1188.0,710.0 1240.0,710.0"/><polygon points="1344.0,710.0 1318.0,755.0 1266.0,755.0 1240.0,710.0 1266.0,665.0 1318.0,665.0"/></g><g fill="none" stroke="#ffd66e" stroke-width="2.5" opacity="0.9"><polygon points="1110.0,665.0 1084.0,710.0 1032.0,710.0 1006.0,665.0 1032.0,620.0 1084.0,620.0"/><polygon points="1266.0,665.0 1240.0,710.0 1188.0,710.0 1162.0,665.0 1188.0,620.0 1240.0,620.0"/></g><use href="#lbase" transform="translate(1028,565) scale(0.2)"/><use href="#ldead" transform="translate(1184,565) scale(0.2)"/><text x="920" y="856" fill="#a9c9c4" font-size="13">About 100 px tall: warm ground, cool units; both forms read.</text></svg>