<svg xmlns="http://www.w3.org/2000/svg" width="300" height="520" viewBox="0 0 300 520"><defs><filter id="glow" x="-50%" y="-50%" width="200%" height="200%"><feGaussianBlur stdDeviation="2.4" result="b"/><feMerge><feMergeNode in="b"/><feMergeNode in="SourceGraphic"/></feMerge></filter><filter id="bloom" x="-200%" y="-200%" width="500%" height="500%"><feGaussianBlur stdDeviation="4" result="b"/><feMerge><feMergeNode in="b"/><feMergeNode in="b"/><feMergeNode in="SourceGraphic"/></feMerge></filter></defs><ellipse cx="150" cy="500" rx="76" ry="12" fill="#2a2010" opacity="0.35"/><path d="M120,192 L180,192 L198,494 L102,494 Z" fill="#3c4f5e" stroke="#1a1024" stroke-width="3" stroke-linejoin="round" /><path d="M146,196 L154,196 L156,494 L144,494 Z" fill="#8c6427" stroke="#1a1024" stroke-width="2" stroke-linejoin="round" /><clipPath id="aldous_base"><g><path d="M120,192 L180,192 L198,494 L102,494 Z"/></g></clipPath><rect clip-path="url(#aldous_base)" x="0" y="60" width="150" height="460" fill="#20164a" opacity="0.3"/><path d="M116.0,209.0 L110.0,289.2 L126.0,290.8 L136.0,211.0 Z" fill="#283744" stroke="#1a1024" stroke-width="3" stroke-linejoin="round" /><circle cx="126" cy="210" r="10.0" fill="#283744" stroke="#1a1024" stroke-width="3"/><circle cx="118" cy="290" r="8.0" fill="#283744" stroke="#1a1024" stroke-width="3"/><path d="M116.0,209.0 L110.0,289.2 L126.0,290.8 L136.0,211.0 Z" fill="#283744" stroke="#1a1024" stroke-width="0" stroke-linejoin="round" /><circle cx="118" cy="294" r="8" fill="#e6b48c" stroke="#1a1024" stroke-width="2" /><path d="M128,140 C126,108 174,108 172,140 L170,174 C162,192 138,192 130,174 Z" fill="#e6b48c" stroke="#1a1024" stroke-width="3" stroke-linejoin="round" /><path d="M124,132 C120,104 180,104 176,132 C170,120 130,120 124,132 Z" fill="#d8d2c4" stroke="#1a1024" stroke-width="3" stroke-linejoin="round" /><path d="M132,170 C138,200 162,200 168,170 C160,180 140,180 132,170 Z" fill="#d8d2c4" stroke="#1a1024" stroke-width="3" stroke-linejoin="round" /><path d="M140,150 l7,1 M154,151 l7,-1" stroke="#1a1024" stroke-width="2.6" stroke-linecap="round"/><path d="M126,134 C128,116 140,108 152,106" fill="none" stroke="#ffd66e" stroke-width="2" stroke-linecap="round" filter="url(#glow)" opacity="0.95"/><path d="M168.2,214.3 L213.8,267.1 L226.2,256.9 L183.8,201.7 Z" fill="#283744" stroke="#1a1024" stroke-width="3" stroke-linejoin="round" /><circle cx="176" cy="208" r="10.0" fill="#283744" stroke="#1a1024" stroke-width="3"/><circle cx="220" cy="262" r="8.0" fill="#283744" stroke="#1a1024" stroke-width="3"/><path d="M168.2,214.3 L213.8,267.1 L226.2,256.9 L183.8,201.7 Z" fill="#283744" stroke="#1a1024" stroke-width="0" stroke-linejoin="round" /><circle cx="222" cy="266" r="8" fill="#e6b48c" stroke="#1a1024" stroke-width="2" /><path d="M222,264.0 L222,276.0" stroke="#a8703c" stroke-width="6.0" stroke-linecap="round"/><path d="M211.0,276.0 C211.0,270.0 233.0,270.0 233.0,276.0 L244.0,306.0 L200.0,306.0 Z" fill="#c9963f" stroke="#1a1024" stroke-width="3" stroke-linejoin="round" /><circle cx="222" cy="311.0" r="5.0" fill="#8c6427" stroke="#1a1024" stroke-width="2" /><path d="M252,290 q8,10 0,20" fill="none" stroke="#ffd66e" stroke-width="2" opacity="0.8" filter="url(#glow)"/><path d="M262,284 q8,10 0,20" fill="none" stroke="#ffd66e" stroke-width="2" opacity="0.6" filter="url(#glow)"/><path d="M272,278 q8,10 0,20" fill="none" stroke="#ffd66e" stroke-width="2" opacity="0.4" filter="url(#glow)"/></svg>