<svg xmlns="http://www.w3.org/2000/svg" width="300" height="520" viewBox="0 0 300 520"><defs><filter id="glow" x="-50%" y="-50%" width="200%" height="200%"><feGaussianBlur stdDeviation="2.4" result="b"/><feMerge><feMergeNode in="b"/><feMergeNode in="SourceGraphic"/></feMerge></filter><filter id="bloom" x="-200%" y="-200%" width="500%" height="500%"><feGaussianBlur stdDeviation="4" result="b"/><feMerge><feMergeNode in="b"/><feMergeNode in="b"/><feMergeNode in="SourceGraphic"/></feMerge></filter></defs><ellipse cx="150" cy="500" rx="104" ry="12" fill="#2a2010" opacity="0.35"/><path d="M112,340 L148,340 L142,470 L104,470 Z" fill="#6a2e1c" stroke="#1a1024" stroke-width="3" stroke-linejoin="round" /><path d="M152,340 L190,340 L196,470 L158,470 Z" fill="#6a2e1c" stroke="#1a1024" stroke-width="3" stroke-linejoin="round" /><path d="M98,452 L138,452 L146,498 L94,498 Z" fill="#2b1d33" stroke="#1a1024" stroke-width="3" stroke-linejoin="round" /><path d="M156,452 L200,452 L208,498 L152,498 Z" fill="#2b1d33" stroke="#1a1024" stroke-width="3" stroke-linejoin="round" /><path d="M85.2,209.8 L71.1,316.1 L96.9,319.9 L114.8,214.2 Z" fill="#9a4a2c" stroke="#1a1024" stroke-width="3" stroke-linejoin="round" /><circle cx="100" cy="212" r="15.0" fill="#9a4a2c" stroke="#1a1024" stroke-width="3"/><circle cx="84" cy="318" r="13.0" fill="#9a4a2c" stroke="#1a1024" stroke-width="3"/><path d="M85.2,209.8 L71.1,316.1 L96.9,319.9 L114.8,214.2 Z" fill="#9a4a2c" stroke="#1a1024" stroke-width="0" stroke-linejoin="round" /><circle cx="84" cy="322" r="15" fill="#e6b48c" stroke="#1a1024" stroke-width="2" /><path d="M92,198 L208,198 L214,352 L86,352 Z" fill="#566075" stroke="#1a1024" stroke-width="3" stroke-linejoin="round" /><path d="M116,212 L184,212 L190,346 L110,346 Z" fill="#9a4a2c" stroke="#1a1024" stroke-width="3" stroke-linejoin="round" /><path d="M88,332 L212,332 L212,352 L88,352 Z" fill="#6a3f25" stroke="#1a1024" stroke-width="2" stroke-linejoin="round" /><ellipse cx="98.0" cy="214.0" rx="12.0" ry="7.2" fill="none" stroke="#1a1024" stroke-width="7"/><ellipse cx="98.0" cy="214.0" rx="12.0" ry="7.2" fill="none" stroke="#b7bcc6" stroke-width="4"/><ellipse cx="110.2" cy="228.5" rx="7.2" ry="12.0" fill="none" stroke="#1a1024" stroke-width="7"/><ellipse cx="110.2" cy="228.5" rx="7.2" ry="12.0" fill="none" stroke="#b7bcc6" stroke-width="4"/><ellipse cx="122.5" cy="243.0" rx="12.0" ry="7.2" fill="none" stroke="#1a1024" stroke-width="7"/><ellipse cx="122.5" cy="243.0" rx="12.0" ry="7.2" fill="none" stroke="#b7bcc6" stroke-width="4"/><ellipse cx="134.8" cy="257.5" rx="7.2" ry="12.0" fill="none" stroke="#1a1024" stroke-width="7"/><ellipse cx="134.8" cy="257.5" rx="7.2" ry="12.0" fill="none" stroke="#b7bcc6" stroke-width="4"/><ellipse cx="147.0" cy="272.0" rx="12.0" ry="7.2" fill="none" stroke="#1a1024" stroke-width="7"/><ellipse cx="147.0" cy="272.0" rx="12.0" ry="7.2" fill="none" stroke="#b7bcc6" stroke-width="4"/><ellipse cx="159.2" cy="286.5" rx="7.2" ry="12.0" fill="none" stroke="#1a1024" stroke-width="7"/><ellipse cx="159.2" cy="286.5" rx="7.2" ry="12.0" fill="none" stroke="#b7bcc6" stroke-width="4"/><ellipse cx="171.5" cy="301.0" rx="12.0" ry="7.2" fill="none" stroke="#1a1024" stroke-width="7"/><ellipse cx="171.5" cy="301.0" rx="12.0" ry="7.2" fill="none" stroke="#b7bcc6" stroke-width="4"/><ellipse cx="183.8" cy="315.5" rx="7.2" ry="12.0" fill="none" stroke="#1a1024" stroke-width="7"/><ellipse cx="183.8" cy="315.5" rx="7.2" ry="12.0" fill="none" stroke="#b7bcc6" stroke-width="4"/><ellipse cx="196.0" cy="330.0" rx="12.0" ry="7.2" fill="none" stroke="#1a1024" stroke-width="7"/><ellipse cx="196.0" cy="330.0" rx="12.0" ry="7.2" fill="none" stroke="#b7bcc6" stroke-width="4"/><ellipse cx="98" cy="210" rx="32" ry="22" fill="#8a95a8" stroke="#1a1024" stroke-width="3"/><ellipse cx="202" cy="210" rx="32" ry="22" fill="#8a95a8" stroke="#1a1024" stroke-width="3"/><clipPath id="garrow_base"><g><path d="M92,198 L208,198 L214,352 L86,352 Z"/></g></clipPath><rect clip-path="url(#garrow_base)" x="0" y="60" width="150" height="460" fill="#20164a" opacity="0.3"/><path d="M122,150 C120,112 180,112 178,150 L178,186 C168,204 132,204 122,186 Z" fill="#e6b48c" stroke="#1a1024" stroke-width="3" stroke-linejoin="round" /><path d="M124,172 C134,196 166,196 176,172 L178,190 C166,214 134,214 122,190 Z" fill="#3a2320" stroke="#1a1024" stroke-width="3" stroke-linejoin="round" /><path d="M140,160 l8,0 M156,160 l8,0" stroke="#1a1024" stroke-width="2.6" stroke-linecap="round"/><path d="M160,128 l8,22" stroke="#74222d" stroke-width="3" stroke-linecap="round"/><path d="M168,120 C176,130 178,140 178,150" fill="none" stroke="#ffd66e" stroke-width="2.6" stroke-linecap="round" filter="url(#glow)" opacity="0.95"/><path d="M187.6,220.1 L213.5,303.6 L238.5,296.4 L216.4,211.9 Z" fill="#9a4a2c" stroke="#1a1024" stroke-width="3" stroke-linejoin="round" /><circle cx="202" cy="216" r="15.0" fill="#9a4a2c" stroke="#1a1024" stroke-width="3"/><circle cx="226" cy="300" r="13.0" fill="#9a4a2c" stroke="#1a1024" stroke-width="3"/><path d="M187.6,220.1 L213.5,303.6 L238.5,296.4 L216.4,211.9 Z" fill="#9a4a2c" stroke="#1a1024" stroke-width="0" stroke-linejoin="round" /><circle cx="228" cy="306" r="17" fill="#8a95a8" stroke="#1a1024" stroke-width="2" /><ellipse cx="228.0" cy="320.0" rx="11.0" ry="6.6" fill="none" stroke="#1a1024" stroke-width="7"/><ellipse cx="228.0" cy="320.0" rx="11.0" ry="6.6" fill="none" stroke="#b7bcc6" stroke-width="4"/><ellipse cx="231.1" cy="340.0" rx="6.6" ry="11.0" fill="none" stroke="#1a1024" stroke-width="7"/><ellipse cx="231.1" cy="340.0" rx="6.6" ry="11.0" fill="none" stroke="#b7bcc6" stroke-width="4"/><ellipse cx="234.3" cy="360.0" rx="11.0" ry="6.6" fill="none" stroke="#1a1024" stroke-width="7"/><ellipse cx="234.3" cy="360.0" rx="11.0" ry="6.6" fill="none" stroke="#b7bcc6" stroke-width="4"/><ellipse cx="237.4" cy="380.0" rx="6.6" ry="11.0" fill="none" stroke="#1a1024" stroke-width="7"/><ellipse cx="237.4" cy="380.0" rx="6.6" ry="11.0" fill="none" stroke="#b7bcc6" stroke-width="4"/><ellipse cx="240.6" cy="400.0" rx="11.0" ry="6.6" fill="none" stroke="#1a1024" stroke-width="7"/><ellipse cx="240.6" cy="400.0" rx="11.0" ry="6.6" fill="none" stroke="#b7bcc6" stroke-width="4"/><ellipse cx="243.7" cy="420.0" rx="6.6" ry="11.0" fill="none" stroke="#1a1024" stroke-width="7"/><ellipse cx="243.7" cy="420.0" rx="6.6" ry="11.0" fill="none" stroke="#b7bcc6" stroke-width="4"/><ellipse cx="246.9" cy="440.0" rx="11.0" ry="6.6" fill="none" stroke="#1a1024" stroke-width="7"/><ellipse cx="246.9" cy="440.0" rx="11.0" ry="6.6" fill="none" stroke="#b7bcc6" stroke-width="4"/><ellipse cx="250.0" cy="460.0" rx="6.6" ry="11.0" fill="none" stroke="#1a1024" stroke-width="7"/><ellipse cx="250.0" cy="460.0" rx="6.6" ry="11.0" fill="none" stroke="#b7bcc6" stroke-width="4"/><path d="M208,230 L212,300" fill="none" stroke="#ffd66e" stroke-width="2" stroke-linecap="round" filter="url(#glow)" opacity="0.95"/></svg>