<svg xmlns="http://www.w3.org/2000/svg" width="96" height="96" viewBox="0 0 96 96"><defs><filter id="glow" x="-50%" y="-50%" width="200%" height="200%"><feGaussianBlur stdDeviation="2.4" result="b"/><feMerge><feMergeNode in="b"/><feMergeNode in="SourceGraphic"/></feMerge></filter><filter id="bloom" x="-200%" y="-200%" width="500%" height="500%"><feGaussianBlur stdDeviation="4" result="b"/><feMerge><feMergeNode in="b"/><feMergeNode in="b"/><feMergeNode in="SourceGraphic"/></feMerge></filter></defs><rect x="4" y="4" width="88" height="88" rx="18" fill="#2e2140" stroke="#1a1024" stroke-width="6"/><rect x="4" y="4" width="88" height="88" rx="18" fill="none" stroke="#9b82d0" stroke-width="3"/><rect x="12" y="12" width="72" height="72" rx="12" fill="none" stroke="#9b82d0" stroke-width="1.5" opacity="0.5"/><g transform="translate(15,15) scale(0.66)"><path d="M40 82 L60 82 M44 82 L44 50 L56 50 L56 82 M50 50 L50 44 M50 44 C44 36 48 28 50 22 C52 28 56 36 50 44 Z M28 82 L72 82" fill="none" stroke="#1a1024" stroke-width="10" stroke-linecap="round" stroke-linejoin="round"/><path d="M40 82 L60 82 M44 82 L44 50 L56 50 L56 82 M50 50 L50 44 M50 44 C44 36 48 28 50 22 C52 28 56 36 50 44 Z M28 82 L72 82" fill="none" stroke="#c9b3f5" stroke-width="6" stroke-linecap="round" stroke-linejoin="round"/></g></svg>
