<svg xmlns="http://www.w3.org/2000/svg" width="300" height="520" viewBox="0 0 300 520"><defs><filter id="glow" x="-50%" y="-50%" width="200%" height="200%"><feGaussianBlur stdDeviation="2.4" result="b"/><feMerge><feMergeNode in="b"/><feMergeNode in="SourceGraphic"/></feMerge></filter><filter id="bloom" x="-200%" y="-200%" width="500%" height="500%"><feGaussianBlur stdDeviation="4" result="b"/><feMerge><feMergeNode in="b"/><feMergeNode in="b"/><feMergeNode in="SourceGraphic"/></feMerge></filter></defs><g transform="translate(150,500) scale(0.85) translate(-150,-500)"><ellipse cx="150" cy="500" rx="64" ry="11" fill="#2a2010" opacity="0.35"/><path d="M108.1,459.0 L103.1,495.2 L112.9,496.8 L119.9,461.0 Z" fill="#5a4c40" stroke="#1a1024" stroke-width="3" stroke-linejoin="round" /><circle cx="114" cy="460" r="6.0" fill="#5a4c40" stroke="#1a1024" stroke-width="3"/><circle cx="108" cy="496" r="5.0" fill="#5a4c40" stroke="#1a1024" stroke-width="3"/><path d="M108.1,459.0 L103.1,495.2 L112.9,496.8 L119.9,461.0 Z" fill="#5a4c40" stroke="#1a1024" stroke-width="0" stroke-linejoin="round" /><path d="M130.0,466.0 L131.0,498.0 L141.0,498.0 L142.0,466.0 Z" fill="#5a4c40" stroke="#1a1024" stroke-width="3" stroke-linejoin="round" /><circle cx="136" cy="466" r="6.0" fill="#5a4c40" stroke="#1a1024" stroke-width="3"/><circle cx="136" cy="498" r="5.0" fill="#5a4c40" stroke="#1a1024" stroke-width="3"/><path d="M130.0,466.0 L131.0,498.0 L141.0,498.0 L142.0,466.0 Z" fill="#5a4c40" stroke="#1a1024" stroke-width="0" stroke-linejoin="round" /><path d="M164.0,466.7 L169.0,498.6 L179.0,497.4 L176.0,465.3 Z" fill="#5a4c40" stroke="#1a1024" stroke-width="3" stroke-linejoin="round" /><circle cx="170" cy="466" r="6.0" fill="#5a4c40" stroke="#1a1024" stroke-width="3"/><circle cx="174" cy="498" r="5.0" fill="#5a4c40" stroke="#1a1024" stroke-width="3"/><path d="M164.0,466.7 L169.0,498.6 L179.0,497.4 L176.0,465.3 Z" fill="#5a4c40" stroke="#1a1024" stroke-width="0" stroke-linejoin="round" /><path d="M186.1,458.9 L193.1,496.8 L202.9,495.2 L197.9,457.1 Z" fill="#5a4c40" stroke="#1a1024" stroke-width="3" stroke-linejoin="round" /><circle cx="192" cy="458" r="6.0" fill="#5a4c40" stroke="#1a1024" stroke-width="3"/><circle cx="198" cy="496" r="5.0" fill="#5a4c40" stroke="#1a1024" stroke-width="3"/><path d="M186.1,458.9 L193.1,496.8 L202.9,495.2 L197.9,457.1 Z" fill="#5a4c40" stroke="#1a1024" stroke-width="0" stroke-linejoin="round" /><path d="M96,440 C80,428 74,410 80,398 C88,414 96,420 104,424 Z" fill="#8a7a6a" stroke="#1a1024" stroke-width="3" stroke-linejoin="round" /><path d="M96,452 C92,420 120,404 158,406 C190,408 206,424 204,448 C202,468 180,474 150,474 C118,474 100,470 96,452 Z" fill="#8a7a6a" stroke="#1a1024" stroke-width="3" stroke-linejoin="round" /><clipPath id="cliffmite"><g><path d="M96,452 C92,420 120,404 158,406 C190,408 206,424 204,448 C202,468 180,474 150,474 C118,474 100,470 96,452 Z"/></g></clipPath><rect clip-path="url(#cliffmite)" x="0" y="400" width="140" height="120" fill="#20164a" opacity="0.3"/><path d="M186,420 C188,396 206,382 226,386 C244,390 250,408 244,424 C236,436 214,440 198,436 Z" fill="#8a7a6a" stroke="#1a1024" stroke-width="3" stroke-linejoin="round" /><path d="M200,392 L204,368 L214,388 Z" fill="#5a4c40" stroke="#1a1024" stroke-width="3" stroke-linejoin="round" /><path d="M220,388 L232,366 L234,392 Z" fill="#5a4c40" stroke="#1a1024" stroke-width="3" stroke-linejoin="round" /><path d="M236,418 C246,418 252,424 252,430 C244,432 238,430 234,426 Z" fill="#5a4c40" stroke="#1a1024" stroke-width="2" stroke-linejoin="round" /><circle cx="228" cy="406" r="3.2" fill="#62f2df" filter="url(#glow)"/><circle cx="228" cy="406" r="1.4" fill="#effffc"/><path d="M160,408 C184,410 200,420 204,440" fill="none" stroke="#62f2df" stroke-width="2.2" stroke-linecap="round" filter="url(#glow)" opacity="0.95"/><path d="M150,433 l5,5 l-5,5 l-5,-5 Z" fill="#62f2df" filter="url(#glow)"/></g></svg>