<svg xmlns="http://www.w3.org/2000/svg" width="128" height="160" viewBox="0 0 128 160"><ellipse cx="64" cy="151" rx="30" ry="6" fill="#000000" opacity="0.25"/><rect x="50" y="118" width="11" height="26" rx="3" fill="#3A3440" stroke="#14101A" stroke-width="3" stroke-linejoin="round"/><rect x="67" y="118" width="11" height="26" rx="3" fill="#3A3440" stroke="#14101A" stroke-width="3" stroke-linejoin="round"/><path d="M47 142 L62 142 L63 150 L46 150 Z" fill="#2A2028" stroke="#14101A" stroke-width="3" stroke-linejoin="round" stroke-linecap="round"/><path d="M66 142 L81 142 L84 150 L65 150 Z" fill="#2A2028" stroke="#14101A" stroke-width="3" stroke-linejoin="round" stroke-linecap="round"/><ellipse cx="42" cy="104" rx="8" ry="14" fill="#6B6875" stroke="#14101A" stroke-width="3"/><circle cx="41" cy="118" r="6" fill="#E2B894" stroke="#14101A" stroke-width="3"/><path d="M36 90 Q64 80 92 90 L90 124 Q64 130 38 124 Z" fill="#6B6875" stroke="#14101A" stroke-width="3" stroke-linejoin="round" stroke-linecap="round"/><path d="M80 92 Q90 94 90 104 L89 122 Q76 126 70 126 Z" fill="#3C3A44" opacity="0.5"/><circle cx="39" cy="62" r="5" fill="#E2B894" stroke="#14101A" stroke-width="3"/><circle cx="64" cy="58" r="28" fill="#E2B894" stroke="#14101A" stroke-width="3"/><ellipse cx="62" cy="60" rx="3" ry="4" fill="#14101A"/><ellipse cx="78" cy="60" rx="3" ry="4" fill="#14101A"/><circle cx="61" cy="58.5" r="1" fill="#FFFFFF"/><circle cx="77" cy="58.5" r="1" fill="#FFFFFF"/><ellipse cx="56" cy="68" rx="4" ry="2.5" fill="#E88C7A" opacity="0.6"/><path d="M57 53 L66 55" fill="none" stroke="#14101A" stroke-width="2.5" stroke-linecap="round" stroke-linejoin="round"/><path d="M74 55 L83 53" fill="none" stroke="#14101A" stroke-width="2.5" stroke-linecap="round" stroke-linejoin="round"/><path d="M67 71 L76 71" fill="none" stroke="#14101A" stroke-width="2.2" stroke-linecap="round" stroke-linejoin="round"/><path d="M46 64 Q64 108 84 64 Q90 80 80 92 Q64 104 48 92 Q40 80 46 64 Z" fill="#E6E0D6" stroke="#14101A" stroke-width="3" stroke-linejoin="round" stroke-linecap="round"/><path d="M36 50 Q36 28 64 28 Q92 28 92 50 L92 56 L36 56 Z" fill="#6B6875" stroke="#14101A" stroke-width="3" stroke-linejoin="round" stroke-linecap="round"/><path d="M40 40 Q48 32 60 30" fill="none" stroke="#9C99A6" stroke-width="2.5" stroke-linecap="round" stroke-linejoin="round"/><rect x="56" y="44" width="30" height="6" rx="2" fill="#3C3A44" stroke="#14101A" stroke-width="3" stroke-linejoin="round"/><path d="M36 86 Q64 76 92 86 L94 98 Q64 90 34 98 Z" fill="#7A3A2A" stroke="#14101A" stroke-width="3" stroke-linejoin="round" stroke-linecap="round"/><path d="M76 94 Q92 96 90 108 L84 110 Q80 102 74 102 Z" fill="#6B6875" stroke="#14101A" stroke-width="3" stroke-linejoin="round" stroke-linecap="round"/><circle cx="88" cy="108" r="6.5" fill="#E2B894" stroke="#14101A" stroke-width="3"/></svg>
