<svg xmlns="http://www.w3.org/2000/svg" width="64" height="64" viewBox="0 0 64 64"><g transform="translate(32 32) scale(0.82) translate(-32 -32)"><circle cx="32" cy="34" r="16" fill="#6E9A5A" stroke="#14101A" stroke-width="3"/><path d="M32 18 Q20 8 12 12" fill="none" stroke="#14101A" stroke-width="6" stroke-linecap="round" stroke-linejoin="round"/><path d="M32 18 Q20 8 12 12" fill="none" stroke="#8A5A3C" stroke-width="3" stroke-linecap="round" stroke-linejoin="round"/><path d="M32 18 Q44 6 54 10" fill="none" stroke="#14101A" stroke-width="6" stroke-linecap="round" stroke-linejoin="round"/><path d="M32 18 Q44 6 54 10" fill="none" stroke="#8A5A3C" stroke-width="3" stroke-linecap="round" stroke-linejoin="round"/><path d="M22 46 Q14 54 10 58" fill="none" stroke="#14101A" stroke-width="6" stroke-linecap="round" stroke-linejoin="round"/><path d="M22 46 Q14 54 10 58" fill="none" stroke="#8A5A3C" stroke-width="3" stroke-linecap="round" stroke-linejoin="round"/><path d="M42 46 Q50 54 56 58" fill="none" stroke="#14101A" stroke-width="6" stroke-linecap="round" stroke-linejoin="round"/><path d="M42 46 Q50 54 56 58" fill="none" stroke="#8A5A3C" stroke-width="3" stroke-linecap="round" stroke-linejoin="round"/><path d="M32 26 Q40 34 32 42 Q24 34 32 26 Z" fill="#A8D08C" stroke="#14101A" stroke-width="2" stroke-linejoin="round" stroke-linecap="round"/></g></svg>
