<svg xmlns="http://www.w3.org/2000/svg" width="300" height="300" viewBox="0 0 300 300"><defs><filter id="glow" x="-50%" y="-50%" width="200%" height="200%"><feGaussianBlur stdDeviation="2.4" result="b"/><feMerge><feMergeNode in="b"/><feMergeNode in="SourceGraphic"/></feMerge></filter><filter id="bloom" x="-200%" y="-200%" width="500%" height="500%"><feGaussianBlur stdDeviation="4" result="b"/><feMerge><feMergeNode in="b"/><feMergeNode in="b"/><feMergeNode in="SourceGraphic"/></feMerge></filter></defs><ellipse cx="150" cy="246" rx="118" ry="30" fill="#2a2010" opacity="0.32"/><path d="M50,230 L50,170 L170,170 L170,230 Z" fill="#f4ead0" stroke="#1a1024" stroke-width="3" stroke-linejoin="round" /><ellipse cx="170" cy="200" rx="18" ry="30" fill="#d6c9a6" stroke="#1a1024" stroke-width="3"/><path d="M54,182 L166,182" stroke="#d6c9a6" stroke-width="2.5"/><path d="M54,194 L166,194" stroke="#d6c9a6" stroke-width="2.5"/><path d="M54,206 L166,206" stroke="#d6c9a6" stroke-width="2.5"/><path d="M54,218 L166,218" stroke="#d6c9a6" stroke-width="2.5"/><rect x="50" y="206" width="120" height="24" fill="#20164a" opacity="0.25"/><path d="M184,236 L180,180 L200,160 L250,160 L262,180 L256,236 Z" fill="#f4ead0" stroke="#1a1024" stroke-width="3" stroke-linejoin="round" /><path d="M176,174 Q172,150 194,152 L256,152 Q276,150 270,174 Z" fill="#d6c9a6" stroke="#1a1024" stroke-width="3" stroke-linejoin="round" /><circle cx="186" cy="166" r="7" fill="#f4ead0" stroke="#1a1024" stroke-width="2.5" /><circle cx="262" cy="166" r="7" fill="#f4ead0" stroke="#1a1024" stroke-width="2.5" /><path d="M200,154 L254,154" fill="none" stroke="#ffd66e" stroke-width="2.4" stroke-linecap="round" filter="url(#glow)" opacity="0.95"/><path d="M60,228 q10,-10 20,0 q10,-10 20,0" fill="#6f6a38" stroke="#1a1024" stroke-width="2"/></svg>
